<svg xmlns="http://www.w3.org/2000/svg" viewBox="0 0 1200 760" role="img" aria-label="Indoor vertical farm illustration">
  <defs>
    <linearGradient id="bg" x1="0" x2="1" y1="0" y2="1">
      <stop offset="0" stop-color="#10291d"/>
      <stop offset=".55" stop-color="#173e2b"/>
      <stop offset="1" stop-color="#f5f7f2"/>
    </linearGradient>
    <linearGradient id="led" x1="0" x2="1">
      <stop offset="0" stop-color="#f4d7ff"/>
      <stop offset="1" stop-color="#ffffff"/>
    </linearGradient>
  </defs>
  <rect width="1200" height="760" fill="url(#bg)"/>
  <path d="M0 610h1200v150H0Z" fill="#eaf1eb"/>
  <g opacity=".25" stroke="#fff" stroke-width="2">
    <path d="M604 90v580M80 690 604 90 1120 690M180 690 604 90 1020 690"/>
  </g>
  <g transform="translate(85 130)">
    <g fill="none" stroke="#d9e4dd" stroke-width="10">
      <path d="M0 0h440v430H0Z"/>
      <path d="M0 112h440M0 224h440M0 336h440"/>
      <path d="M36 0v430M404 0v430"/>
    </g>
    <g stroke="url(#led)" stroke-width="8">
      <path d="M28 36h384M28 148h384M28 260h384M28 372h384"/>
    </g>
    <g fill="#29a356">
      <ellipse cx="100" cy="91" rx="64" ry="22"/><ellipse cx="250" cy="91" rx="64" ry="22"/>
      <ellipse cx="100" cy="203" rx="64" ry="22"/><ellipse cx="250" cy="203" rx="64" ry="22"/>
      <ellipse cx="100" cy="315" rx="64" ry="22"/><ellipse cx="250" cy="315" rx="64" ry="22"/>
    </g>
  </g>
  <g transform="translate(675 110)">
    <g fill="none" stroke="#d9e4dd" stroke-width="10">
      <path d="M0 0h430v455H0Z"/>
      <path d="M0 118h430M0 236h430M0 354h430"/>
      <path d="M38 0v455M392 0v455"/>
    </g>
    <g stroke="url(#led)" stroke-width="8">
      <path d="M28 38h374M28 156h374M28 274h374M28 392h374"/>
    </g>
    <g fill="#38b866">
      <ellipse cx="112" cy="95" rx="72" ry="24"/><ellipse cx="274" cy="95" rx="72" ry="24"/>
      <ellipse cx="112" cy="213" rx="72" ry="24"/><ellipse cx="274" cy="213" rx="72" ry="24"/>
      <ellipse cx="112" cy="331" rx="72" ry="24"/><ellipse cx="274" cy="331" rx="72" ry="24"/>
    </g>
  </g>
</svg>
