<svg xmlns="http://www.w3.org/2000/svg" viewBox="0 0 1200 760" role="img" aria-label="Smart farm operators illustration">
  <defs>
    <linearGradient id="greenhouse" x1="0" x2="1" y1="0" y2="1">
      <stop offset="0" stop-color="#f7fbf6"/>
      <stop offset=".52" stop-color="#e7f3ea"/>
      <stop offset="1" stop-color="#cde5d3"/>
    </linearGradient>
  </defs>
  <rect width="1200" height="760" fill="url(#greenhouse)"/>
  <g opacity=".28" stroke="#7aa58b" stroke-width="8" fill="none">
    <path d="M60 210h1080M60 350h1080M60 490h1080M230 120v460M520 90v520M812 120v460"/>
  </g>
  <g fill="#0b7c45" opacity=".9">
    <ellipse cx="170" cy="590" rx="80" ry="28"/><ellipse cx="335" cy="610" rx="92" ry="30"/>
    <ellipse cx="868" cy="600" rx="96" ry="32"/><ellipse cx="1040" cy="585" rx="80" ry="28"/>
  </g>
  <g transform="translate(450 190)">
    <circle cx="128" cy="72" r="54" fill="#f0c6a6"/>
    <path d="M70 70c8-66 110-91 151-26 6 30-5 52-27 70-7-48-38-70-91-66-10 16-21 25-33 22Z" fill="#202923"/>
    <path d="M56 178c18-59 52-88 101-88s84 31 103 88v250H56Z" fill="#1d4633"/>
    <rect x="91" y="182" width="135" height="186" rx="14" fill="#2f6c4f"/>
    <rect x="124" y="218" width="132" height="92" rx="12" fill="#dfe8e4" stroke="#2d4f3e" stroke-width="8"/>
  </g>
  <g transform="translate(660 160)">
    <circle cx="130" cy="82" r="56" fill="#edc2a2"/>
    <path d="M71 76c12-83 137-86 167 0-7 35-22 57-45 66-3-47-29-72-79-75-13 14-27 18-43 9Z" fill="#171f1a"/>
    <path d="M55 198c23-63 61-95 114-95 56 0 96 32 120 95v240H55Z" fill="#283c33"/>
    <rect x="91" y="202" width="142" height="178" rx="14" fill="#405d4d"/>
    <path d="M20 282c60 44 117 44 171 0" stroke="#edc2a2" stroke-width="28" fill="none" stroke-linecap="round"/>
  </g>
</svg>
